<!-- Generated by IcoMoon.io -->
<svg version="1.1" xmlns="http://www.w3.org/2000/svg" width="54" height="32" viewBox="0 0 54 32">
<title>tagline-here</title>
<path fill="#afb1b8" d="M25.455 3.015h-0.070c-0.107-0.007-0.213-0.009-0.32-0.012h-0.231c-0.202 0-0.407 0.005-0.612 0.015-0.007-0.001-0.015-0.001-0.023-0.001s-0.016 0-0.024 0.001h0.001c-1.961 0.114-3.782 0.605-5.428 1.4l0.086-0.037-0.219 0.106v11.247l0.514-0.175c0.451-0.155 0.932-0.295 1.429-0.424 1.229-0.329 2.643-0.527 4.1-0.546h0.012v1.478c-0.184 0.001-0.362 0.006-0.541 0.015h-0.043c-1.155 0.065-2.236 0.238-3.278 0.511l0.114-0.025c-1.431 0.364-2.686 0.867-3.852 1.511l0.083-0.042v-14.424c1.138-0.677 2.455-1.228 3.85-1.585l0.105-0.023c1.117-0.3 2.4-0.475 3.723-0.48h0.22c0.26 0.007 0.513 0.018 0.751 0.036 0.626 0.044 1.247 0.143 1.857 0.296v1.454c-0.518-0.127-1.133-0.223-1.761-0.269l-0.037-0.002-0.037-0.003c-0.125-0.011-0.251-0.021-0.368-0.021zM28.014 4.501c0.323 0.025 0.657 0.037 0.995 0.037 1.394-0.005 2.743-0.189 4.029-0.528l-0.111 0.025c1.431-0.365 2.684-0.868 3.85-1.512l-0.083 0.042v14.166c-1.139 0.676-2.455 1.227-3.85 1.585l-0.105 0.023c-1.117 0.299-2.4 0.474-3.723 0.479h-0.003c-0.027 0-0.059 0-0.091 0-0.971 0-1.914-0.122-2.814-0.351l0.079 0.017v-14.259c0.218 0.051 0.443 0.097 0.672 0.136 0.375 0.064 0.771 0.11 1.157 0.138zM35.224 4.611l-0.514 0.173c-0.472 0.159-0.95 0.301-1.429 0.428-1.28 0.343-2.75 0.542-4.266 0.548h-0.003c-0.335 0-0.644-0.009-0.942-0.028l-0.41-0.027v11.569l0.352 0.030c0.326 0.029 0.663 0.043 1.002 0.043 1.197-0.005 2.355-0.164 3.458-0.457l-0.095 0.022c1.008-0.256 1.883-0.579 2.712-0.981l-0.084 0.037 0.219-0.106v-11.25z"></path>
<path fill="#afb1b8" d="M18.152 22.965c-0.138-0.143-0.331-0.232-0.545-0.232-0.009 0-0.019 0-0.028 0h0.001c-0.003 0-0.007 0-0.012 0-0.115 0-0.224 0.023-0.324 0.064l0.006-0.002c-0.195 0.078-0.346 0.231-0.421 0.423l-0.002 0.005c-0.041 0.102-0.060 0.21-0.059 0.319v1.927c-0.005 0.136 0.021 0.271 0.076 0.395 0.046 0.099 0.111 0.187 0.193 0.259 0.077 0.064 0.167 0.112 0.264 0.137 0.094 0.026 0.191 0.040 0.288 0.040 0.107 0.001 0.213-0.022 0.311-0.067 0.289-0.129 0.487-0.413 0.488-0.744v-0.215h-0.504v0.172c0 0.003 0 0.008 0 0.012 0 0.058-0.011 0.113-0.031 0.163l0.001-0.003c-0.017 0.043-0.042 0.079-0.073 0.109v0c-0.058 0.045-0.131 0.072-0.21 0.074v0c-0.009 0.001-0.019 0.002-0.029 0.002-0.085 0-0.16-0.041-0.206-0.105v-0.001c-0.042-0.068-0.067-0.15-0.067-0.239 0-0.007 0-0.014 0-0.020v0.001-1.797c-0.003-0.1 0.018-0.198 0.062-0.288 0.047-0.071 0.126-0.118 0.216-0.118 0.011 0 0.021 0.001 0.031 0.002h-0.001c0.003 0 0.006 0 0.010 0 0.088 0 0.166 0.043 0.215 0.108v0.001c0.052 0.068 0.083 0.154 0.083 0.248 0 0.004 0 0.008 0 0.011v-0.001 0.167h0.499v-0.197c0-0.003 0-0.006 0-0.009 0-0.118-0.023-0.231-0.064-0.335l0.002 0.006c-0.040-0.105-0.097-0.196-0.169-0.272v0zM21.145 22.944c-0.154-0.131-0.354-0.211-0.573-0.212v0c-0.103 0-0.205 0.019-0.301 0.054-0.208 0.075-0.372 0.227-0.46 0.422l-0.002 0.005c-0.051 0.117-0.076 0.245-0.074 0.373v1.848c-0.004 0.13 0.022 0.259 0.074 0.378 0.046 0.1 0.112 0.188 0.195 0.259 0.077 0.071 0.168 0.127 0.266 0.163 0.096 0.036 0.198 0.054 0.301 0.054 0.22-0.001 0.421-0.083 0.574-0.218l-0.001 0.001c0.080-0.072 0.145-0.16 0.19-0.259 0.052-0.119 0.077-0.248 0.074-0.378v-1.848c0-0.005 0-0.010 0-0.016 0-0.129-0.027-0.252-0.076-0.362l0.002 0.006c-0.047-0.106-0.111-0.195-0.19-0.27v0zM20.91 25.434c0.001 0.009 0.001 0.018 0.001 0.028 0 0.094-0.039 0.179-0.101 0.239v0c-0.064 0.054-0.147 0.086-0.237 0.086s-0.174-0.033-0.238-0.087h0.001c-0.063-0.060-0.101-0.145-0.101-0.238 0-0.010 0-0.021 0.001-0.031v0.001-1.848c-0.001-0.009-0.001-0.018-0.001-0.029 0-0.094 0.039-0.178 0.101-0.239v0c0.064-0.054 0.147-0.086 0.237-0.086s0.174 0.033 0.238 0.087h-0.001c0.063 0.060 0.101 0.145 0.101 0.238 0 0.010 0 0.020-0.001 0.030v-0.001 1.849zM25.075 26.26v-3.5h-0.484l-0.636 1.852h-0.009l-0.642-1.852h-0.479v3.499h0.5v-2.128h0.009l0.489 1.505h0.249l0.493-1.505h0.009v2.128h0.5zM27.915 23.006c-0.077-0.086-0.174-0.152-0.282-0.192-0.103-0.035-0.221-0.055-0.343-0.055-0.007 0-0.013 0-0.020 0h-0.742v3.5h0.499v-1.367h0.256c0.156 0.007 0.31-0.026 0.45-0.096 0.114-0.064 0.207-0.155 0.272-0.264l0.002-0.003c0.057-0.093 0.096-0.197 0.114-0.305 0.017-0.11 0.027-0.237 0.027-0.366 0-0.011 0-0.022 0-0.033v0.002c0.005-0.168-0.012-0.336-0.049-0.5-0.035-0.126-0.099-0.234-0.184-0.322v0zM27.658 24.073c-0.002 0.067-0.019 0.129-0.047 0.185l0.001-0.003c-0.029 0.054-0.073 0.096-0.127 0.122l-0.002 0.001c-0.062 0.028-0.134 0.045-0.209 0.045-0.009 0-0.018 0-0.027-0.001h-0.227v-1.19h0.257c0.007 0 0.016-0.001 0.024-0.001 0.073 0 0.142 0.016 0.204 0.046l-0.003-0.001c0.051 0.030 0.092 0.074 0.116 0.127l0.001 0.002c0.027 0.061 0.042 0.128 0.044 0.195v0.233c0 0.081 0.005 0.166 0 0.24h-0.005zM30.277 22.761h-0.409l-0.771 3.5h0.499l0.146-0.752h0.68l0.146 0.752h0.498l-0.79-3.5zM29.817 25.032l0.245-1.268h0.009l0.244 1.268h-0.498zM33.498 24.869h-0.009l-0.753-2.108h-0.48v3.5h0.498v-2.104h0.010l0.762 2.104h0.469v-3.499h-0.498v2.108zM36.545 22.761l-0.401 1.392h-0.010l-0.401-1.392h-0.527l0.685 2.021v1.479h0.499v-1.479l0.685-2.020h-0.528zM16.762 27.248h0.24v0.674h0.163v-0.675h0.239v-0.138h-0.642v0.139zM18.782 27.11l-0.315 0.813h0.173l0.067-0.185h0.324l0.069 0.185h0.178l-0.323-0.813h-0.173zM18.757 27.601l0.11-0.301 0.11 0.301h-0.221zM20.779 27.623h0.188v0.105c-0.052 0.042-0.12 0.068-0.193 0.069v0c-0.003 0-0.008 0-0.012 0-0.065 0-0.123-0.030-0.161-0.078v0c-0.038-0.054-0.060-0.121-0.060-0.194 0-0.006 0-0.013 0.001-0.019v0.001c0-0.181 0.078-0.271 0.234-0.271 0.005-0.001 0.011-0.001 0.018-0.001 0.080 0 0.147 0.055 0.166 0.129v0.001l0.16-0.032c-0.035-0.158-0.149-0.239-0.344-0.239-0.003 0-0.007 0-0.011 0-0.105 0-0.201 0.040-0.273 0.105v0c-0.073 0.072-0.118 0.172-0.118 0.282 0 0.011 0 0.021 0.001 0.032v-0.001c0 0.006 0 0.012 0 0.019 0 0.109 0.040 0.209 0.105 0.286l-0.001-0.001c0.072 0.074 0.172 0.12 0.283 0.12 0.009 0 0.017 0 0.026-0.001h-0.001c0.004 0 0.009 0 0.013 0 0.128 0 0.244-0.049 0.331-0.13v0-0.32h-0.352v0.137zM22.818 27.11h-0.165v0.813h0.569v-0.138h-0.404v-0.675zM24.542 27.11h-0.165v0.813h0.165v-0.813zM26.228 27.652l-0.333-0.542h-0.159v0.813h0.152v-0.531l0.327 0.531h0.164v-0.813h-0.151v0.543zM27.752 27.564h0.405v-0.138h-0.405v-0.178h0.435v-0.139h-0.6v0.813h0.617v-0.138h-0.452v-0.22zM31.447 27.43h-0.32v-0.32h-0.163v0.812h0.163v-0.356h0.32v0.356h0.164v-0.813h-0.164v0.32zM32.98 27.564h0.406v-0.138h-0.406v-0.178h0.437v-0.139h-0.599v0.813h0.616v-0.138h-0.452v-0.22zM35.059 27.565c0.142-0.022 0.213-0.097 0.213-0.226 0.001-0.007 0.001-0.015 0.001-0.023 0-0.065-0.032-0.122-0.081-0.158h-0.001c-0.060-0.031-0.131-0.049-0.206-0.049-0.011 0-0.022 0-0.033 0.001h-0.343v0.812h0.164v-0.34h0.032c0.004 0 0.008 0 0.013 0 0.032 0 0.062 0.007 0.090 0.019l-0.001-0.001c0.024 0.015 0.044 0.035 0.058 0.059l0.177 0.258h0.195l-0.099-0.158c-0.045-0.079-0.105-0.145-0.178-0.194l-0.002-0.001zM34.895 27.452h-0.12v-0.204h0.129c0.010-0.001 0.022-0.001 0.034-0.001 0.047 0 0.092 0.008 0.134 0.022l-0.003-0.001c0.022 0.020 0.035 0.048 0.035 0.079 0 0.035-0.017 0.066-0.043 0.085v0c-0.041 0.013-0.087 0.020-0.136 0.020-0.011 0-0.021 0-0.032-0.001h0.001zM36.627 27.564h0.404v-0.138h-0.404v-0.178h0.437v-0.139h-0.601v0.813h0.617v-0.138h-0.452v-0.22z"></path>
</svg>
